<svg width="223" height="250" viewBox="0 0 223 250" fill="none" xmlns="http://www.w3.org/2000/svg">
<g clip-path="url(#clip0_111_49)">
<path d="M35.9219 158.5L23.922 152C19.922 159 10.5886 177.167 7.92196 185.5C-8.07801 243.5 45.5886 215.333 72.9219 195C10.5219 233.4 18.9219 190.5 35.9219 158.5Z" fill="#0144FF"/>
<path d="M129.422 53L122.922 41.5C136.522 32.3 144.255 28.3332 146.422 27.4999C199.622 5.0999 180.589 59.8333 164.422 90C192.922 23 153.422 37.1666 129.422 53Z" fill="#0144FF"/>
</g>
<path d="M77.3701 11.0723C80.0523 -1.14946 96.3807 -3.38704 102.34 7.375L102.615 7.89746L132.768 67.8203L170.98 58.0215C170.079 64.6507 167.467 73.7321 162.391 85.8926L161.74 87.4346C160.902 89.4045 161.766 91.6834 163.693 92.6074L163.875 92.6895C165.766 93.4841 167.969 92.7148 168.947 90.8887L168.948 90.8896C173.064 83.2092 177.372 73.9496 180.678 64.7051C181.863 61.3902 182.931 58.0368 183.819 54.7295L205.597 49.1465L206.202 49.0039C218.646 46.3496 227.515 61.0315 219.369 70.8105L218.962 71.2803L167.033 128.678L208.618 218.344C214.136 230.245 201.142 242.251 189.71 235.766L107.364 189.131L51.0146 245.415C41.4523 254.958 25.3468 246.092 28.3057 232.903L30.8662 221.489C37.6135 219.697 44.8881 216.498 51.8652 212.782V212.781C60.6962 208.077 69.3447 202.391 76.3096 197.209L76.3086 197.208C78.0265 195.931 78.4329 193.527 77.2324 191.756H77.2314C76.0303 189.985 73.6488 189.472 71.8262 190.594C56.8251 199.825 46.4514 203.985 39.623 204.94L38.9736 205.023C37.1697 205.228 35.7236 205.185 34.5664 204.993L45.543 156.072L7.55176 134.058L7.5498 134.057C-2.45429 128.257 -1.01723 113.364 9.94238 109.606L59.4785 92.6016L77.3701 11.0723ZM74.5195 115.92C71.3839 115.92 69.0803 116.64 67.6084 118.08C66.1365 119.488 65.4005 121.648 65.4004 124.56V125.04C65.4004 126.96 65.8323 128.528 66.6963 129.744C67.5923 130.928 68.7603 131.76 70.2002 132.24C68.5362 132.688 67.2237 133.552 66.2637 134.832C65.0478 136.432 64.4405 138.448 64.4404 140.88V141.36C64.4405 144.496 65.1765 146.801 66.6484 148.272C68.1204 149.744 70.4241 150.48 73.5596 150.48H84.5996C87.7353 150.48 90.0397 149.744 91.5117 148.272C92.9837 146.801 93.7197 144.496 93.7197 141.36V140.88C93.7197 139.568 93.5602 138.416 93.2402 137.424C92.3122 134.672 90.5519 132.944 87.96 132.24C89.3999 131.76 90.552 130.928 91.416 129.744C92.312 128.528 92.7598 126.96 92.7598 125.04V124.56C92.7597 121.648 92.0237 119.488 90.5518 118.08C89.0798 116.64 86.7756 115.92 83.6396 115.92H74.5195ZM97.0762 123.12H110.517C112.436 123.12 113.396 124.08 113.396 126V128.4L96.1162 140.88V150H122.036V143.28H105.956L116.276 135.84C117.108 135.232 117.876 134.624 118.58 134.016C120.884 132.032 122.036 129.68 122.036 126.96V126C122.036 122.64 121.268 120.208 119.732 118.704C118.228 117.168 115.796 116.4 112.437 116.4H97.0762V123.12ZM125.389 123.12H138.829C140.749 123.12 141.709 124.08 141.709 126V128.4L124.429 140.88V150H150.349V143.28H134.269L144.589 135.84C145.421 135.232 146.189 134.624 146.893 134.016C149.197 132.032 150.349 129.68 150.349 126.96V126C150.349 122.64 149.581 120.208 148.045 118.704C146.541 117.168 144.109 116.4 140.749 116.4H125.389V123.12ZM82.2002 136.56C84.1201 136.56 85.0801 137.52 85.0801 139.44V141.36C85.08 142.096 84.856 142.688 84.4082 143.136C83.9922 143.552 83.4157 143.76 82.6797 143.76H75.4805C74.7445 143.76 74.1521 143.552 73.7041 143.136C73.2882 142.688 73.0801 142.096 73.0801 141.36V139.44C73.0801 137.52 74.04 136.56 75.96 136.56H82.2002ZM81.2402 122.64C83.1599 122.64 84.12 123.6 84.1201 125.52V126.96C84.1201 128.88 83.1601 129.84 81.2402 129.84H76.9199C75 129.84 74.04 128.88 74.04 126.96V125.52C74.0402 123.6 75.0001 122.64 76.9199 122.64H81.2402Z" fill="#0144FF"/>
<defs>
<clipPath id="clip0_111_49">
<rect width="177" height="199" fill="white" transform="translate(5 22)"/>
</clipPath>
</defs>
</svg>
